<?xml version="1.0" encoding="UTF-8"?><svg id="Layer_2" xmlns="http://www.w3.org/2000/svg" viewBox="0 0 171.28 87.94"><defs><style>.cls-1{fill:#f4ede8;}.cls-2{fill:#ffc885;}.cls-3{fill:#999591;}.cls-4{fill:#0f1119;}</style></defs><g id="Layer_1-2"><path class="cls-1" d="m49.16,20.53c-2.03-3.53-2.08-8.07,1.08-10.68,2.83-2.34,6.5-1.41,7.63,1.24-1.12-1.14-2.59-1.34-3.78-.89-.05.02-.64.3-.59.31-.5.33-.85.76-1.1,1.26-.46.88-.44,1.98-.33,2.12.34,3.89,8.08,6.26,14.1,1-.06.03.14-.07-.12.06,1.61-1.26,3.59-3.94,4.82-8.11,1.85-6.29,9.4-8.92,14.77-5,4.02-2.94,9.67-2.3,12.92,1.56.86,1.03,1.48,2.23,1.85,3.44,1.23,4.17,3.21,6.85,4.82,8.11-.26-.13-.07-.03-.12-.06,6.07,5.29,13.77,2.85,14.1-1,.11-.14.13-1.24-.33-2.12-.25-.5-.6-.94-1.1-1.26.05-.02-.54-.29-.59-.31-1.2-.45-2.67-.23-3.78.89.73-1.7,2.34-2.53,3.99-2.59,4.3-.15,8.42,5.56,4.72,12.03,0,0-.08.1-.05.07-1.15,2.03-3.2,3.72-5.2,4.89.02,0-.23.09-.13.05-7.89,4.66-20.93,3.48-31.09-7.88-10.51,11.74-23.66,12.27-31.09,7.88.1.04-.15-.06-.13-.05-2.07-1.2-4.08-2.91-5.2-4.89.03.04-.05-.07-.05-.07Z"/><path class="cls-1" d="m118.41,79.21c1.31,2.69-.94,6.06-4.11,6.67-4.34.88-8.56-2.32-11.8-4.41-11.51-7.57-17.4-.8-14.57,3.27.48.7,1.17,1.16,1.91,1.41,1.48.51,3.08.03,3.87-.95,1.5-1.71-.41-4.13-1.96-2.92-.37.28-.41.55-.43.55l-.26-.11c.04-.24.18-.52.44-.77,1.98-1.97,5.13,1.23,3.16,4.03-1.02,1.49-3.07,2.36-5.35,1.79-.54-.14-1.08-.36-1.59-.68-.27-.17-.47-.31-.77-.59-.09-.09-.13-.1-.28-.26-.13-.14-.25-.28-.34-.39-.28-.35-.49-.74-.68-1.15-.06.15-.11.31-.19.44-.64,1.13-1.59,1.93-2.65,2.37-2.2.91-4.37.13-5.53-1.13-2.14-2.29-.56-5.01,1.18-4.89,1.32.08,1.56,1.17,1.56,1.17l-.26.1s-.05-.26-.44-.51c-1.01-.68-2.31.37-2.08,1.74.28,1.74,2.77,3.02,4.82,1.99.69-.34,1.3-.94,1.66-1.69,1.19-2.5-1.01-5.54-3.84-6.04-4.13-.81-8.2,2.33-11.4,4.43-14.76,9.59-19.75-3.39-13.09-5.5,3.69-1.22,6.25,2.7,4.09,4.41-.78.67-2.2.54-2.74-.62l.26-.11s.11.27.5.45c1.84.98,2.79-2.51-.1-2.77-.44-.03-1.01.03-1.47.27-.19.09-.8.52-.83.68-.05.07-.17.21-.16.22-.01.03-.03.06-.06.13-.28.56-.35,1.16-.14,1.81.02.04.05.13.06.13.97,2.25,4.55,1.91,7.08,1.2,1.84-.56,3.44-1.57,5.06-2.64,1.77-1.12,3.66-2.44,5.85-3.46,1.14-.54,2.32-.92,3.61-1.13,1.27-.21,2.64-.22,3.98.09,2.39.53,4.25,2.14,5.18,4.22,1.5-3.72,6.79-6.42,14.66-3.09l.82.4c5,2.54,10.48,8.19,14.47,5.42,1.62-1.2,1.6-3,.32-3.88-1.66-1.2-4.27.39-3.54,1.89.24.53.82.73,1.32.54.4-.15.5-.41.51-.4l.26.1s-.36.96-1.54.89c-.95-.05-1.75-1.09-1.57-2.27.44-2.91,5.42-3.95,7.15-.42Z"/><g><path class="cls-2" d="m157.82,27.48v-5.58h-32.73l-.66,1.88h31.51v4.48l12.68,12.68-12.68,12.68v4.48H15.34v-4.48l-12.68-12.68,12.68-12.68v-4.48h32.54l-.66-1.88H13.46v5.58L0,40.94l13.46,13.46v5.58h22.33v5.39c0,4.4,3.56,7.96,7.96,7.96h83.78c4.4,0,7.96-3.56,7.96-7.96v-5.39h22.33v-5.58l13.46-13.46-13.46-13.46Z"/><path class="cls-3" d="m14.4,35.39c3.06,3.06,3.06,8.03,0,11.09l-5.55-5.54,5.55-5.55Z"/><path class="cls-3" d="m156.67,46.48c-3.06-3.06-3.06-8.03,0-11.09l5.55,5.54-5.55,5.55Z"/><g><path class="cls-1" d="m29.67,40.47c-.45.26-.68.65-.68,1.19v4.38c-.02.52-.13,1-.33,1.44-.2.44-.47.83-.81,1.16-.34.33-.74.59-1.19.79-.45.19-.94.29-1.45.29s-1.01-.1-1.47-.3-.86-.47-1.2-.81c-.34-.34-.61-.74-.81-1.2s-.3-.95-.3-1.47c0-.27-.03-.48-.08-.62-.06-.14-.12-.24-.18-.32-.06-.07-.13-.14-.18-.21-.06-.06-.08-.17-.08-.32h1.26c.26,0,.39.13.39.39,0-.11.04-.21.12-.28s.17-.11.27-.11h1.28c0,.15-.03.25-.08.32-.06.06-.12.13-.18.21-.06.07-.13.18-.18.32-.06.14-.08.35-.08.64,0,.21,0,.46.02.76.02.3.07.59.17.86.1.27.25.51.46.7s.5.29.87.29.68-.1.88-.29c.2-.19.35-.43.45-.71.1-.28.15-.57.17-.87.02-.3.02-.55.02-.76v-2.62c0-.21-.01-.46-.04-.76-.02-.3-.08-.58-.18-.85-.1-.27-.25-.49-.45-.68-.2-.19-.49-.28-.86-.28-.52,0-1-.1-1.45-.29-.45-.19-.85-.46-1.19-.79-.34-.33-.61-.72-.81-1.17s-.31-.94-.33-1.45v-2.47c.02-.52.12-1,.33-1.45s.47-.84.81-1.18c.34-.33.73-.59,1.19-.79.45-.19.94-.29,1.45-.29s1,.1,1.47.3c.46.2.86.47,1.2.81.34.34.61.74.81,1.19.2.46.3.95.3,1.48,0,.27.03.47.08.6s.12.23.18.31c.06.08.12.15.18.22.06.06.08.17.08.31h-1.26c-.11-.02-.21-.05-.29-.11-.08-.06-.12-.14-.12-.25,0,.21-.13.33-.39.36h-1.26c0-.14.03-.25.08-.31s.12-.14.18-.22c.06-.08.12-.18.18-.31.06-.13.08-.34.08-.63v-.02c0-.21,0-.46-.02-.76s-.07-.58-.17-.85c-.1-.27-.25-.51-.46-.7-.21-.19-.5-.29-.87-.29s-.68.1-.88.3c-.2.2-.35.44-.45.71-.1.27-.15.57-.17.87-.02.31-.02.57-.02.78v2.3c0,.21,0,.46.02.76.02.3.07.59.17.87.1.28.25.52.45.71s.5.29.88.29c.53,0,1.03.11,1.5.32s.88.49,1.24.85c.27-.32.62-.48,1.04-.48.27,0,.5.06.68.17Zm-6.01-.94l.02.02-.02-.02s-.03,0-.05-.02c0-.02-.02-.04-.07-.07-.02-.03-.03-.05-.04-.06,0,0-.02-.03-.04-.06-.08-.08-.15-.18-.19-.29-.08-.15-.15-.29-.19-.44-.06-.13-.12-.31-.17-.53-.03-.1-.06-.19-.07-.29-.02-.1-.03-.2-.05-.32-.02-.05-.02-.1-.02-.16s0-.12-.02-.18c0-.06,0-.11-.02-.15v-.17c-.02-.13-.03-.25-.04-.35,0-.1-.02-.22-.04-.35v-1.36c.02-.11.03-.22.04-.33,0-.1.01-.21.01-.3.02-.1.03-.19.04-.29,0-.1.03-.19.06-.27.03-.19.06-.35.1-.46.02-.08.03-.15.05-.19.02-.05.04-.1.07-.15,0-.02,0-.03.01-.04,0,0,.01-.02.01-.04l.05-.05s.02-.03.02-.04,0-.02.02-.04l.05-.05s0-.02.02-.02l-.02.02s-.05,0-.05.02l-.08.08s-.05.05-.08.08c-.03.05-.06.1-.1.15-.03.05-.06.11-.1.19-.03.08-.06.16-.1.23s-.06.15-.1.23c-.06.21-.11.4-.12.56-.03.11-.05.22-.06.33,0,.11-.02.21-.04.33-.02.05-.02.1-.02.16s0,.12-.02.18v.34c-.03.24-.03.48,0,.73,0,.13,0,.25.01.35,0,.11.02.22.04.35.03.16.06.27.07.34,0,.1.02.21.05.34.03.11.06.22.1.33.03.11.06.21.1.3.03.13.06.23.1.29.03.05.05.09.06.13,0,.04.03.08.06.13.06.15.15.28.27.41.11.15.2.23.27.27.02.03.03.05.05.06.02,0,.03.02.05.04l.1.05s.03.02.05.02Zm4.36,5.09v-.27c-.02-.06-.02-.15-.02-.27,0-.1,0-.19-.01-.27,0-.08-.02-.16-.04-.24,0-.05,0-.09-.01-.13,0-.04-.01-.08-.01-.11s0-.07-.01-.11c0-.04-.01-.08-.01-.11-.02-.08-.03-.15-.04-.21,0-.06-.02-.12-.04-.18-.02-.05-.03-.1-.05-.15-.02-.05-.03-.1-.05-.15,0-.02,0-.03-.01-.05,0-.02-.01-.03-.01-.05-.02-.02-.02-.04-.02-.07-.02-.02-.02-.03-.02-.05h-.02l.02.05v.19s.02.15.02.29v1.87c-.02.1-.02.19-.02.28v.54c-.02.06-.02.15-.02.27,0,.13,0,.22-.02.27v.27c-.02.08-.03.17-.04.25,0,.09-.01.17-.01.25-.02.02-.02.05-.02.1,0,.06,0,.11-.02.12v.12s0,.03-.01.04c0,0-.01.03-.01.06,0,.05,0,.08-.02.1v.1s-.02.05-.02.1c0,.02,0,.03-.01.04s-.01.02-.01.04c0,.03,0,.06-.02.07,0,.03,0,.06-.02.07v.07s-.02.04-.02.07c-.02.02-.02.03-.02.05s0,.03-.02.05c0,.02,0,.03-.01.04,0,0-.01.02-.01.04l-.02.05h.02l.02-.05.05-.05s.05-.06.05-.1l.05-.05s0-.03.01-.04c0,0,.01-.02.01-.04.02-.02.02-.03.02-.04s0-.02.02-.04c0-.02,0-.03.01-.04s.01-.02.01-.04c.02-.03.03-.06.04-.08,0-.02.02-.05.04-.08.02-.02.02-.03.02-.05s0-.03.02-.05c0-.02,0-.03.01-.05s.01-.03.01-.05l.05-.1s0-.09.02-.12c0-.02,0-.03.01-.05,0-.02.01-.04.01-.07.02-.02.02-.05.02-.1.03-.08.05-.17.06-.25,0-.09.02-.17.04-.25.03-.08.05-.17.05-.27s0-.19.02-.29c.02-.08.02-.17.02-.27s0-.19.02-.29v-.56Z"/><path class="cls-1" d="m37.95,47.45c0,.29.03.5.09.64.06.14.12.24.19.32.07.07.13.14.19.21.06.06.09.17.09.32h-1.28c-.12,0-.21-.04-.28-.12-.07-.08-.11-.17-.11-.27,0,.1-.04.19-.12.27-.08.08-.17.12-.27.12h-1.28c0-.15.03-.25.08-.32.06-.06.12-.13.18-.21.06-.07.12-.17.18-.3.06-.13.08-.33.08-.61v-5.81c0-.18-.06-.33-.19-.46-.13-.13-.28-.2-.46-.22h-1.73c-.18.02-.33.09-.46.22-.13.13-.19.28-.19.46v5.76c0,.29.03.5.08.64.06.14.12.24.18.32.06.07.12.14.18.21.06.06.08.17.08.32h-1.28c-.1,0-.19-.04-.27-.12-.08-.08-.12-.17-.12-.27,0,.1-.04.19-.11.27-.07.08-.17.12-.28.12h-1.28c0-.15.03-.25.08-.32.06-.06.12-.13.18-.21.06-.07.12-.17.18-.3.06-.13.08-.33.08-.61v-5.91c-.05-.5-.27-.86-.68-1.09.18-.11.4-.17.68-.17v-6.93c0-.27-.03-.48-.08-.61-.06-.13-.12-.23-.18-.3-.06-.07-.13-.14-.18-.21-.06-.06-.08-.17-.08-.32h1.3c.1,0,.19.04.27.11.08.07.12.17.12.28,0-.26.13-.39.39-.39h1.26c0,.15-.03.25-.08.32-.06.06-.12.13-.18.21-.06.07-.13.18-.18.32-.06.14-.08.35-.08.64v5.76c0,.18.06.33.19.46.13.13.28.19.46.19h1.73c.18,0,.33-.06.46-.19.13-.13.19-.28.19-.46v-5.84c0-.26-.03-.45-.08-.58-.06-.13-.12-.23-.18-.3-.06-.07-.13-.14-.18-.21-.06-.06-.08-.17-.08-.32h1.28c.26,0,.39.13.39.39,0-.26.13-.39.39-.39h1.28c0,.15-.03.25-.09.32-.06.06-.12.13-.19.21-.07.07-.13.18-.19.32-.06.14-.09.35-.09.64v6.88c.27,0,.5.06.68.17-.18.11-.33.27-.45.46s-.2.4-.23.63v5.86Zm-6.25-5.89c.02-.18.02-.36.02-.56v-1.13c0-.19,0-.38-.02-.57v-1.09c-.03-.74-.06-1.39-.07-1.94v-.39c0-.13,0-.25-.02-.36,0-.13,0-.24-.01-.34,0-.1-.01-.19-.01-.27-.02-.08-.02-.15-.02-.22v-.17s-.02-.06-.02-.1v-.02.12s0,.11-.01.17c0,.06-.01.14-.01.22-.02.08-.02.17-.02.27s0,.21-.02.34v.36c0,.13,0,.26-.02.39-.02.29-.03.6-.04.92,0,.32-.01.66-.01,1.02v.27c0,.1,0,.19-.02.27v3.37c.02.08.02.17.02.27v.79c0,.17,0,.34.02.5,0,.18,0,.34.01.48,0,.15.01.29.01.44s0,.28.01.4c0,.12.01.25.01.38.02.11.02.22.02.31s0,.19.02.27c0,.08,0,.16.01.23s.01.13.01.16v.15-.02s0-.09.02-.12v-.16c0-.07,0-.15.02-.23,0-.08,0-.17.01-.27,0-.1.01-.2.01-.31.02-.13.02-.25.02-.38s0-.25.02-.4v-.44c0-.15,0-.31.02-.48v-.5c0-.17,0-.34.02-.52v-1.09Zm5.3-1.11v-1.4c0-.1,0-.19-.02-.29v-.53c0-.36,0-.69-.01-1.02,0-.32-.02-.63-.04-.92-.02-.13-.02-.26-.02-.39s0-.25-.02-.36c0-.13,0-.24-.01-.34,0-.1-.01-.19-.01-.27s0-.15-.01-.22c0-.06-.01-.12-.01-.17v-.12s-.02,0-.02.02v.27c0,.06,0,.14-.02.22,0,.08,0,.17-.01.27,0,.1-.01.21-.01.34-.02.11-.02.23-.02.36s0,.26-.02.39c-.02.29-.02.6-.02.92s0,.66-.02,1.02v1.09c-.02.19-.02.38-.02.57v1.13c0,.19,0,.38.02.56v1.09c0,.18,0,.35.01.52s.01.34.01.5c0,.18,0,.34.01.48,0,.15.01.29.01.44.02.15.02.28.02.4s0,.25.02.38c0,.11,0,.22.01.31,0,.1.01.19.01.27.02.08.02.16.02.23v.28s0,.02.02.02v-.15s0-.08.01-.16c0-.07.01-.15.01-.23s0-.17.01-.27c0-.1.01-.2.01-.31.02-.13.02-.25.02-.38s0-.25.02-.4c0-.15,0-.29.01-.44,0-.15.01-.31.01-.48,0-.16,0-.33.01-.5,0-.17.01-.34.01-.52v-.53s0-.1.01-.15c0-.05.01-.09.01-.12v-1.41Z"/><path class="cls-1" d="m48.24,47.47c.06.27.14.48.22.61.08.13.16.23.24.32s.15.15.22.22c.06.06.11.17.15.32h-1.28c-.11,0-.21-.04-.3-.12-.09-.08-.14-.18-.16-.29.02.11,0,.21-.07.29-.06.08-.15.12-.24.12h-1.28c-.03-.15-.02-.25.02-.32.05-.06.1-.13.15-.21.05-.07.09-.18.12-.32.03-.14.02-.35-.02-.64v-.02l-.53-2.74c-.03-.16-.12-.3-.27-.42-.15-.12-.31-.18-.48-.18h-1.67c-.18,0-.34.06-.48.18-.15.12-.23.26-.27.42l-.51,2.74v.02c-.05.29-.06.5-.04.64.02.14.06.24.12.32.06.07.11.14.15.21.04.06.05.17.04.32h-1.28c-.11,0-.2-.04-.27-.12-.06-.08-.09-.18-.07-.29-.02.11-.06.21-.15.29-.08.08-.18.12-.29.12h-1.28c.02-.15.06-.25.12-.32l.22-.22c.08-.08.16-.19.24-.32.08-.13.15-.33.22-.61l1.09-5.89c.03-.23,0-.44-.07-.63s-.21-.35-.39-.46c.26-.11.49-.17.7-.17l1.31-6.9c.05-.27.06-.48.02-.62-.03-.14-.07-.24-.12-.32-.05-.07-.1-.14-.15-.21-.05-.06-.06-.17-.02-.32h1.62c.24.03.36.17.36.41,0-.11.04-.21.11-.28.07-.07.16-.12.25-.13h1.65c.03.15.03.25-.01.32-.04.06-.08.13-.13.21-.05.07-.09.18-.12.32-.03.14-.02.34.02.62l1.28,6.9c.13,0,.25.02.36.05.11.03.23.07.34.12-.36.23-.51.59-.46,1.09l1.09,5.89Zm-5.81-8.67c.03-.1.05-.19.06-.28,0-.09.02-.17.04-.25.08-.37.15-.72.19-1.05.05-.33.1-.63.15-.91.03-.13.05-.26.06-.39,0-.13.02-.26.04-.39.02-.11.03-.22.05-.31.02-.1.03-.19.05-.27s.02-.16.02-.23,0-.13.02-.18v-.1l-.02.1s-.03.11-.05.17c-.02.06-.03.14-.05.22-.03.08-.06.17-.07.28-.02.11-.04.21-.07.3-.03.13-.06.26-.08.39-.02.13-.05.26-.08.39-.08.27-.16.57-.23.88-.07.32-.15.66-.23,1.03,0,.1,0,.19-.02.27-.02.08-.04.17-.07.27-.02.1-.03.19-.05.28-.02.09-.03.18-.05.28-.05.18-.09.36-.13.56s-.08.39-.11.58c-.03.18-.07.36-.11.56-.04.19-.08.38-.11.56-.02.05-.02.09-.02.13s0,.08-.02.13c-.03.13-.05.23-.05.29-.05.16-.08.34-.1.53-.03.18-.06.36-.1.53-.03.18-.06.34-.07.48-.05.37-.1.68-.15.92-.03.13-.06.26-.07.39-.02.13-.03.26-.05.39-.03.11-.05.22-.06.33,0,.11-.02.2-.04.28-.02.08-.02.15-.02.22s0,.12-.02.17c0,.03,0,.05-.01.06,0,0-.01.02-.01.04v.02s.02,0,.02-.02c0-.03,0-.06.02-.1.02-.03.03-.08.04-.16,0-.07.03-.15.06-.23.03-.08.06-.17.08-.27.02-.1.05-.2.08-.31.03-.11.06-.23.08-.36.02-.13.04-.26.06-.39.03-.13.07-.27.11-.42.04-.15.08-.31.11-.47s.07-.33.11-.51c.04-.18.08-.36.13-.53.02-.08.03-.17.05-.25.02-.09.03-.17.05-.25l.07-.29s.02-.1.02-.15,0-.1.02-.15c.03-.18.07-.36.12-.55.05-.19.09-.38.12-.57.03-.18.06-.36.1-.56.03-.19.06-.38.1-.56.02-.1.03-.19.05-.29.02-.1.03-.19.05-.27Zm2.06,4.14c.18-.02.32-.08.42-.21.1-.12.14-.27.11-.45l-.15-.7c-.06-.23-.17-.44-.33-.63-.15-.19-.34-.35-.55-.46.19-.11.4-.17.63-.17l-.78-4.14-.78,4.14c.21,0,.43.06.65.17-.23.11-.42.27-.57.46-.15.19-.25.4-.3.63l-.12.7c-.03.18,0,.33.1.45.1.12.23.19.39.21h1.26Zm2.45,3.39s0,.05.01.06c0,0,.01.02.01.04s0,.02.02.02c-.02,0-.02,0-.02-.02v-.1s-.02-.11-.02-.17,0-.14-.02-.22c-.02-.08-.03-.17-.04-.28,0-.1-.03-.21-.06-.33-.02-.13-.03-.26-.05-.39-.02-.13-.04-.26-.07-.39-.05-.24-.1-.55-.15-.92-.03-.15-.06-.31-.08-.48-.02-.18-.05-.36-.08-.53-.03-.1-.05-.19-.06-.27,0-.08-.03-.17-.06-.27,0-.06-.02-.16-.05-.29,0-.05,0-.09-.01-.13,0-.04-.01-.08-.01-.13-.03-.18-.07-.36-.11-.56-.04-.19-.08-.38-.11-.56-.03-.19-.07-.39-.11-.58-.04-.19-.08-.38-.13-.56-.02-.1-.03-.19-.05-.28-.02-.09-.03-.18-.05-.28-.03-.1-.06-.19-.07-.27-.02-.08-.03-.17-.05-.27-.08-.37-.16-.71-.23-1.03-.07-.31-.13-.61-.18-.88-.03-.13-.06-.26-.1-.39-.03-.13-.06-.26-.1-.39-.03-.1-.06-.2-.08-.3-.02-.1-.05-.2-.08-.28-.02-.08-.03-.15-.05-.22-.02-.06-.03-.12-.05-.17l-.02-.1v.1c.02.08.04.22.07.41,0,.08,0,.17.02.27.02.1.03.2.05.31.02.13.03.26.05.39.02.13.04.26.07.39.05.27.1.58.15.91.05.33.1.68.17,1.05.02.08.03.17.04.25,0,.09.03.18.06.28.02.08.03.17.05.27.02.1.03.19.05.29.03.18.07.36.11.56.04.19.08.38.11.56.03.19.07.38.12.57.05.19.09.37.12.55.02.05.02.1.02.15s0,.1.02.15l.07.29c.02.08.03.17.05.25.02.09.03.17.05.25.05.18.09.36.12.53.03.18.06.35.1.51.03.16.07.32.11.47.04.15.08.29.11.42.03.13.06.26.1.39.03.13.06.25.1.36.05.23.1.42.15.58.03.08.05.16.06.23,0,.07.02.13.04.16Z"/><path class="cls-1" d="m56.99,31.97c-.03.15-.08.25-.13.32-.06.06-.13.13-.21.21-.08.07-.16.17-.24.3-.08.13-.15.32-.19.58l-1.31,6.93c.26,0,.48.06.65.19-.45.23-.74.58-.87,1.07l-.05.19-.24,1.26-.82,4.48c-.05.27-.06.48-.02.61.03.13.07.23.12.3.05.07.09.14.13.21.04.06.05.17.04.32h-1.67c-.23-.03-.34-.16-.34-.39,0,.23-.13.36-.39.39h-1.62c-.03-.15-.02-.25.02-.32.05-.06.1-.13.15-.21.05-.07.09-.17.12-.3.03-.13.02-.33-.02-.61l-.85-4.48-.24-1.26-.02-.19c-.06-.23-.17-.43-.33-.62-.15-.19-.34-.33-.54-.45.18-.13.39-.19.63-.19l-1.28-6.93c-.05-.26-.11-.45-.19-.58-.08-.13-.16-.23-.24-.3-.08-.07-.16-.14-.23-.21-.07-.06-.12-.17-.13-.32h1.26c.11,0,.21.04.3.11.09.07.14.17.16.28-.02-.11,0-.21.07-.28.06-.07.15-.11.24-.11h1.28c.02.15,0,.25-.04.32-.04.06-.08.13-.13.21-.05.07-.08.18-.11.32-.02.14-.01.35.04.64l1.28,6.85c.24,0,.48.06.7.19-.37.24-.53.6-.48,1.07l.61,3.17.58-3.17c.05-.48-.11-.84-.46-1.07.23-.13.46-.19.7-.19l1.28-6.85c.05-.29.06-.5.04-.64-.02-.14-.06-.24-.12-.32-.06-.07-.11-.14-.15-.21-.04-.06-.04-.17-.01-.32h1.26c.11,0,.2.04.27.11.06.07.08.17.05.28.06-.26.22-.39.46-.39h1.26Zm-5.93,14.39s0,.05.01.06c0,0,.01.02.01.04v.02-.15s-.02-.08-.02-.16,0-.15-.02-.23c-.02-.08-.03-.17-.05-.27-.02-.1-.03-.2-.05-.31-.02-.13-.03-.26-.05-.39-.02-.13-.04-.27-.07-.41-.03-.27-.08-.58-.13-.91-.06-.33-.12-.67-.18-1.03-.02-.08-.03-.17-.05-.27-.02-.1-.03-.19-.05-.27-.02-.1-.03-.19-.05-.28-.02-.09-.03-.18-.05-.28-.03-.18-.07-.36-.11-.56-.04-.19-.08-.38-.11-.56-.03-.19-.07-.39-.11-.58-.04-.19-.08-.38-.11-.56-.03-.13-.06-.22-.07-.27-.02-.05-.02-.1-.02-.15s0-.1-.02-.15c-.03-.08-.05-.17-.06-.25,0-.09-.03-.18-.06-.28l-.22-1.02c-.03-.16-.07-.32-.11-.47-.04-.15-.08-.29-.11-.42-.03-.15-.06-.28-.08-.4-.02-.12-.05-.25-.08-.38-.08-.21-.13-.4-.15-.58-.03-.08-.06-.15-.07-.22-.02-.06-.03-.12-.05-.17-.02-.02-.02-.05-.02-.1v-.02.05s0,.06.02.1c0,.03,0,.08.01.16,0,.07.02.15.04.23.02.08.03.17.04.27,0,.1.02.2.04.31.03.13.05.26.06.39,0,.13.03.26.06.39.03.15.06.29.07.45.02.15.04.31.07.47.03.18.06.35.08.52s.05.34.08.52c.03.13.06.31.1.53.03.13.05.22.05.27l.07.29c.03.18.06.36.1.56s.06.38.1.56c.05.19.09.38.13.57.04.19.08.38.11.57.02.08.03.17.05.27.02.1.03.19.05.27.03.1.06.19.07.28.02.09.03.18.05.28.08.36.16.69.23,1.02s.14.62.21.9c.03.15.06.28.1.4.03.12.06.25.1.38.05.23.1.42.15.58.02.08.03.15.05.22.02.06.03.12.05.17Zm3.88-11.94v.02s0,.03-.01.05c0,.02-.01.03-.01.05-.02.05-.03.11-.05.17-.02.06-.03.14-.05.22-.05.18-.1.37-.15.58-.03.13-.06.25-.1.38-.03.12-.06.25-.1.4-.03.13-.07.27-.11.42-.04.15-.08.31-.11.47l-.22,1.02c-.02.1-.03.19-.05.28-.02.09-.04.17-.07.25,0,.06-.02.16-.05.29-.03.1-.05.19-.05.27-.03.18-.07.36-.11.56-.04.19-.08.39-.13.58-.03.18-.07.36-.1.56-.03.19-.06.38-.1.56-.03.1-.05.19-.06.28,0,.09-.03.18-.06.28-.02.08-.03.17-.04.27,0,.1-.03.19-.06.27-.06.36-.12.7-.17,1.03-.05.33-.1.63-.15.91-.03.15-.05.28-.06.41,0,.13-.03.26-.06.39-.03.23-.06.42-.07.58-.02.08-.03.16-.04.23,0,.07-.01.13-.01.16-.02.03-.02.07-.02.12v.02-.02s0-.06.02-.1c.02-.05.03-.1.05-.17.02-.06.04-.14.07-.22.02-.16.06-.36.15-.58.03-.13.06-.25.08-.38.02-.12.05-.25.08-.4.08-.27.15-.57.22-.9.06-.32.14-.66.22-1.02.03-.1.05-.19.06-.28,0-.09.03-.18.06-.28.02-.08.03-.17.05-.27.02-.1.03-.19.05-.27.05-.19.09-.38.13-.57.04-.19.08-.38.11-.57.03-.18.07-.36.11-.56.04-.19.08-.38.11-.56,0-.06.02-.16.05-.29,0-.05.02-.14.05-.27.02-.1.03-.19.05-.28.02-.09.03-.17.05-.25.03-.18.06-.35.08-.52s.05-.34.08-.52c.03-.16.06-.32.07-.47.02-.15.04-.3.07-.45.03-.13.06-.26.07-.39.02-.13.03-.26.05-.39.02-.11.03-.22.05-.31.02-.1.03-.19.05-.27,0-.16.02-.29.05-.39v-.15Z"/><path class="cls-1" d="m65.25,47.45c0,.29.03.5.08.64.06.14.12.24.18.32.06.07.12.14.18.21.06.06.08.17.08.32h-6.57c-.1,0-.18-.04-.27-.12-.08-.08-.12-.17-.12-.27,0,.1-.04.19-.11.27-.07.08-.17.12-.28.12h-1.28c0-.15.03-.25.08-.32.06-.06.12-.13.18-.21.06-.07.12-.17.18-.3.06-.13.08-.33.08-.61v-5.91c-.05-.5-.27-.86-.68-1.09.18-.11.4-.17.68-.17v-6.93c0-.27-.03-.48-.08-.61-.06-.13-.12-.23-.18-.3-.06-.07-.13-.14-.18-.21-.06-.06-.08-.17-.08-.32h1.3c.1,0,.19.04.27.11.08.07.12.17.12.28,0-.26.13-.4.39-.4h6.54c0,.15-.03.25-.08.32-.06.07-.12.13-.18.21-.06.07-.13.18-.18.32-.06.14-.08.35-.08.65v3.24c-.57,0-1-.11-1.3-.33s-.52-.46-.67-.74c-.18-.31-.27-.67-.29-1.09v-.75c0-.18-.06-.33-.19-.46-.13-.13-.28-.2-.46-.22h-1.73c-.18.02-.33.09-.46.22-.13.13-.19.28-.19.46v5.44c0,.18.06.33.19.46.13.13.28.19.46.19h.17c.18,0,.32-.06.44-.19.12-.13.18-.28.18-.46v-.02c.02-.24.08-.45.19-.63.1-.16.24-.31.43-.44.19-.13.47-.19.84-.19v5.01c-.37,0-.65-.06-.84-.19-.19-.13-.34-.27-.43-.44-.11-.18-.18-.39-.19-.63,0-.18-.06-.33-.18-.46s-.27-.2-.44-.22h-.17c-.18.02-.33.09-.46.22-.13.13-.19.28-.19.46v5.44c0,.18.06.33.19.46.13.13.28.19.46.19h1.73c.18,0,.33-.06.46-.19.13-.13.19-.28.19-.46v-.78c.02-.4.11-.76.29-1.07.15-.27.37-.52.67-.75.3-.23.73-.34,1.3-.34v3.25Zm-6.23-7v-1.14c0-.08,0-.17-.01-.27,0-.1-.01-.19-.01-.29v-.53c-.02-.36-.02-.69-.02-1.02s0-.63-.02-.92c-.02-.13-.02-.26-.02-.39s0-.25-.02-.36c0-.13,0-.24-.01-.34,0-.1-.01-.19-.01-.27s0-.15-.01-.22c0-.06-.01-.12-.01-.17v-.12s-.02,0-.02.02v.1s0,.11-.01.17c0,.06-.01.14-.01.22s0,.17-.01.27c0,.1-.01.21-.01.34-.02.11-.02.23-.02.36s0,.26-.02.39c-.02.29-.02.6-.02.92s0,.66-.02,1.02v.53c0,.1,0,.19-.01.29,0,.1-.01.19-.01.27v2.25c0,.13,0,.23.02.29v.8c0,.18,0,.35.01.52,0,.17.01.34.01.5,0,.18,0,.34.01.48,0,.15.01.29.01.44.02.15.02.28.02.4s0,.25.02.38c0,.11,0,.22.01.31,0,.1.01.19.01.27s0,.16.01.23.01.13.01.16v.12s0,.02.02.02v-.15s0-.08.01-.16c0-.07.01-.15.01-.23s0-.17.01-.27c0-.1.01-.2.01-.31.02-.13.02-.25.02-.38s0-.25.02-.4c0-.15,0-.29.01-.44,0-.15.01-.31.01-.48,0-.16,0-.33.01-.5,0-.17.01-.34.01-.52v-.53c0-.13,0-.22.02-.27v-1.41Z"/><path class="cls-1" d="m77.67,47.45c0,.29.03.5.08.64.06.14.12.24.18.32.06.07.12.14.18.21.06.06.08.17.08.32h-6.57c-.1,0-.18-.04-.27-.12-.08-.08-.12-.17-.12-.27,0,.1-.04.19-.11.27-.07.08-.17.12-.28.12h-1.28c0-.15.03-.25.08-.32.06-.06.12-.13.18-.21.06-.07.12-.17.18-.3.06-.13.08-.33.08-.61v-5.91c-.05-.5-.27-.86-.68-1.09.18-.11.4-.17.68-.17v-6.93c0-.27-.03-.48-.08-.61-.06-.13-.12-.23-.18-.3-.06-.07-.13-.14-.18-.21-.06-.06-.08-.17-.08-.32h1.3c.1,0,.19.04.27.11.08.07.12.17.12.28,0-.26.13-.4.39-.4h6.54c0,.15-.03.25-.08.32-.06.07-.12.13-.18.21-.06.07-.13.18-.18.32-.06.14-.08.35-.08.65v3.24c-.57,0-1-.11-1.3-.33s-.52-.46-.67-.74c-.18-.31-.27-.67-.29-1.09v-.75c0-.18-.06-.33-.19-.46-.13-.13-.28-.2-.46-.22h-1.73c-.18.02-.33.09-.46.22-.13.13-.19.28-.19.46v5.44c0,.18.06.33.19.46.13.13.28.19.46.19h.17c.18,0,.32-.06.44-.19.12-.13.18-.28.18-.46v-.02c.02-.24.08-.45.19-.63.1-.16.24-.31.43-.44.19-.13.47-.19.84-.19v5.01c-.37,0-.65-.06-.84-.19-.19-.13-.34-.27-.43-.44-.11-.18-.18-.39-.19-.63,0-.18-.06-.33-.18-.46s-.27-.2-.44-.22h-.17c-.18.02-.33.09-.46.22-.13.13-.19.28-.19.46v5.44c0,.18.06.33.19.46.13.13.28.19.46.19h1.73c.18,0,.33-.06.46-.19.13-.13.19-.28.19-.46v-.78c.02-.4.11-.76.29-1.07.15-.27.37-.52.67-.75.3-.23.73-.34,1.3-.34v3.25Zm-6.23-7v-1.14c0-.08,0-.17-.01-.27,0-.1-.01-.19-.01-.29v-.53c-.02-.36-.02-.69-.02-1.02s0-.63-.02-.92c-.02-.13-.02-.26-.02-.39s0-.25-.02-.36c0-.13,0-.24-.01-.34,0-.1-.01-.19-.01-.27s0-.15-.01-.22c0-.06-.01-.12-.01-.17v-.12s-.02,0-.02.02v.1s0,.11-.01.17c0,.06-.01.14-.01.22s0,.17-.01.27c0,.1-.01.21-.01.34-.02.11-.02.23-.02.36s0,.26-.02.39c-.02.29-.02.6-.02.92s0,.66-.02,1.02v.53c0,.1,0,.19-.01.29,0,.1-.01.19-.01.27v2.25c0,.13,0,.23.02.29v.8c0,.18,0,.35.01.52,0,.17.01.34.01.5,0,.18,0,.34.01.48,0,.15.01.29.01.44.02.15.02.28.02.4s0,.25.02.38c0,.11,0,.22.01.31,0,.1.01.19.01.27s0,.16.01.23.01.13.01.16v.12s0,.02.02.02v-.15s0-.08.01-.16c0-.07.01-.15.01-.23s0-.17.01-.27c0-.1.01-.2.01-.31.02-.13.02-.25.02-.38s0-.25.02-.4c0-.15,0-.29.01-.44,0-.15.01-.31.01-.48,0-.16,0-.33.01-.5,0-.17.01-.34.01-.52v-.53c0-.13,0-.22.02-.27v-1.41Z"/><path class="cls-1" d="m86.63,48.32c.1.27.19.47.29.59.1.12.19.22.28.29.09.07.17.14.24.21.07.06.13.17.18.32h-1.28c-.11,0-.22-.04-.31-.12-.1-.08-.16-.17-.19-.27.03.1.02.19-.02.27-.05.08-.13.12-.24.12h-1.26c-.03-.1-.04-.2-.01-.3s.05-.21.07-.33.04-.24.05-.38c0-.14-.01-.29-.06-.47l-1.4-4.34-1.43,4.41c-.08.27-.11.47-.1.59.02.12.04.22.08.29.04.07.08.14.11.21.03.06.02.17-.02.32h-1.26c-.11,0-.19-.04-.24-.12-.05-.08-.06-.17-.02-.27-.03.1-.1.19-.21.27-.11.08-.21.12-.3.12h-1.28c.05-.11.11-.22.19-.33.08-.11.17-.21.28-.32.1-.1.21-.23.3-.36.1-.14.18-.29.24-.47l2.18-6.76c.11-.47,0-.81-.34-1.02.03-.03.06-.05.1-.05.15-.1.32-.15.53-.15l-2.59-8.02c-.1-.26-.19-.45-.29-.58-.1-.13-.19-.23-.27-.3s-.16-.14-.23-.21c-.07-.06-.13-.17-.18-.32h1.26c.11.02.22.06.33.13.1.07.17.17.21.28-.03-.11-.02-.21.02-.28.05-.07.12-.12.22-.13h1.28c.03.11.04.22.01.32-.02.1-.05.2-.08.3s-.05.23-.06.36c0,.14.02.31.08.52l1.48,4.58,1.5-4.6c.08-.27.12-.48.11-.62,0-.14-.03-.24-.07-.32-.04-.07-.08-.14-.11-.21-.03-.06-.02-.17.02-.32h1.26c.11,0,.19.04.24.12.05.08.06.18.02.29.03-.11.1-.21.19-.29.1-.08.2-.12.32-.12h1.28c-.05.15-.11.25-.19.32-.08.06-.17.14-.25.22-.09.08-.18.19-.28.31-.1.13-.19.34-.29.63l-2.57,7.92c.19,0,.38.05.56.15l.1.05c-.37.24-.48.63-.32,1.16.02.02.02.03.02.05s0,.03.02.05l2.11,6.59Zm-1.4-1.04s-.02-.03-.02-.05,0-.03-.01-.05c0-.02-.01-.04-.01-.07-.02-.05-.03-.11-.05-.18-.02-.07-.04-.16-.07-.25-.03-.1-.06-.21-.1-.33-.03-.12-.06-.25-.1-.38-.03-.13-.07-.27-.12-.42-.05-.15-.1-.31-.15-.47-.1-.34-.21-.69-.33-1.07-.12-.37-.25-.77-.38-1.19-.03-.11-.06-.22-.1-.33-.03-.1-.06-.21-.1-.3-.03-.11-.06-.22-.1-.33-.03-.1-.06-.21-.1-.33-.08-.21-.15-.42-.22-.63-.06-.21-.14-.43-.22-.65l-.44-1.31c-.02-.06-.03-.12-.05-.17-.02-.05-.03-.1-.05-.15-.03-.06-.05-.12-.06-.17,0-.05-.03-.1-.06-.15-.03-.11-.06-.22-.1-.33-.03-.1-.07-.21-.1-.3-.08-.21-.15-.41-.22-.61-.06-.19-.13-.38-.19-.56-.08-.19-.15-.38-.21-.55-.06-.17-.12-.34-.18-.52-.03-.08-.06-.16-.08-.23-.02-.07-.05-.15-.08-.23s-.06-.15-.08-.22c-.02-.06-.05-.13-.08-.19-.05-.13-.09-.25-.13-.36-.04-.11-.08-.22-.11-.32-.03-.1-.06-.18-.1-.25-.03-.07-.06-.13-.07-.18l-.07-.15s.02.03.02.05c0,.03,0,.07.02.1.02.06.03.13.05.21s.04.16.07.25c.03.1.06.21.1.33.03.12.06.25.1.38.03.06.05.13.06.19,0,.06.03.14.06.22.03.08.06.16.07.24.02.08.04.16.07.24.05.18.1.35.15.52.05.17.1.35.17.55.06.19.12.39.18.58.06.19.12.4.18.61.03.11.06.22.1.31.03.1.06.2.1.32.03.05.05.1.06.16,0,.06.03.11.06.16.02.05.03.1.04.16,0,.06.03.11.06.16.08.23.15.44.22.65.06.21.13.43.19.65l.44,1.31c.03.11.07.22.11.32s.08.2.11.32c.03.11.07.22.11.31.04.1.08.2.11.32.15.4.28.79.41,1.16.13.37.26.72.39,1.04.06.18.12.34.17.48.05.15.1.28.15.41.05.13.1.25.15.36.05.11.09.22.12.32.03.08.06.16.08.23s.05.14.08.21l.07.15Zm-2.93-4.36c.03-.08.06-.17.08-.25.02-.09.05-.17.08-.25l-.17-.53c-.03.08-.06.19-.1.32-.03.11-.06.22-.1.32-.03.1-.06.2-.1.31-.13.42-.25.82-.38,1.19-.12.37-.23.73-.33,1.07-.05.16-.1.32-.15.47-.05.15-.09.29-.12.42-.03.13-.06.25-.1.38-.03.12-.06.23-.1.33-.03.1-.06.18-.07.25-.02.07-.03.13-.05.18s-.02.09-.02.12c0,.02,0,.03-.02.05l.07-.15c.02-.06.04-.13.07-.21.03-.07.06-.15.1-.23.03-.1.07-.2.11-.32.04-.11.09-.23.16-.36.05-.13.1-.27.15-.41.05-.15.1-.31.17-.48.13-.32.26-.67.39-1.04.13-.37.27-.76.41-1.16Zm1.19-4.6s0,.03-.02.05l.19.53s.02-.08.05-.15c.03-.13.06-.24.1-.34.03-.1.06-.2.1-.3.03-.1.06-.21.1-.3.06-.21.12-.42.18-.62.06-.2.12-.39.18-.57.06-.19.12-.38.17-.56.05-.18.1-.35.17-.51.03-.08.05-.16.06-.24,0-.08.03-.16.06-.24.03-.08.06-.15.07-.22.02-.06.03-.14.05-.22.05-.13.09-.25.12-.36.03-.11.06-.22.1-.32.03-.1.05-.19.06-.27,0-.08.03-.15.06-.19,0-.03,0-.06.01-.07,0-.02.01-.03.01-.05v-.05s-.02.03-.02.05,0,.03-.01.05c0,.02-.01.04-.01.07-.03.05-.06.11-.08.18-.02.07-.05.16-.08.25-.08.21-.17.44-.27.68-.03.06-.06.13-.07.19-.02.06-.04.14-.07.22-.03.08-.07.16-.1.23-.03.07-.06.15-.1.23-.05.16-.11.33-.17.51-.06.18-.13.36-.19.53-.08.19-.15.39-.21.58-.06.19-.13.39-.21.58-.03.11-.07.22-.11.32-.04.1-.08.2-.11.32Z"/><path class="cls-1" d="m95.98,37.22c0,.52-.1,1.01-.29,1.47s-.46.86-.8,1.2c-.34.34-.74.61-1.2.81-.46.2-.95.3-1.47.3h-1.38c-.08.15-.14.34-.17.58v5.86c0,.29.03.5.08.64.06.14.12.24.18.32.06.07.12.14.18.21.06.06.08.17.08.32h-1.28c-.1,0-.19-.04-.27-.12-.08-.08-.12-.17-.12-.27,0,.1-.04.19-.11.27-.07.08-.17.12-.28.12h-1.28c0-.15.03-.25.08-.32.06-.06.12-.13.18-.21.06-.07.12-.17.18-.3.06-.13.08-.33.08-.61v-5.91c-.05-.5-.27-.86-.68-1.09.18-.11.4-.17.68-.17v-6.93c0-.27-.03-.48-.08-.61-.06-.13-.12-.23-.18-.3-.06-.07-.13-.14-.18-.21-.06-.06-.08-.17-.08-.32h1.3c.1,0,.19.04.27.11.08.07.12.17.12.28,0-.26.13-.4.39-.4h2.28c.52,0,1,.1,1.45.29.45.19.85.46,1.19.79.34.33.61.72.8,1.17s.3.93.32,1.43v1.57Zm-6.25,3.22v-1.14c0-.08,0-.17-.01-.27,0-.1-.01-.19-.01-.29v-.53c-.02-.36-.02-.69-.02-1.02s0-.63-.02-.92c-.02-.13-.02-.26-.02-.39s0-.25-.02-.36c0-.13,0-.24-.01-.34,0-.1-.01-.19-.01-.27s0-.15-.01-.22c0-.06-.01-.12-.01-.17v-.12s-.02,0-.02.02v.1s0,.11-.01.17c0,.06-.01.14-.01.22s0,.17-.01.27c0,.1-.01.21-.01.34-.02.11-.02.23-.02.36s0,.26-.02.39c-.02.29-.02.6-.02.92s0,.66-.02,1.02v.53c0,.1,0,.19-.01.29,0,.1-.01.19-.01.27v2.25c0,.13,0,.23.02.29v.8c0,.18,0,.35.01.52,0,.17.01.34.01.5,0,.18,0,.34.01.48,0,.15.01.29.01.44.02.15.02.28.02.4s0,.25.02.38c0,.11,0,.22.01.31,0,.1.01.19.01.27s0,.16.01.23.01.13.01.16v.12s0,.02.02.02v-.15s0-.08.01-.16c0-.07.01-.15.01-.23s0-.17.01-.27c0-.1.01-.2.01-.31.02-.13.02-.25.02-.38s0-.25.02-.4c0-.15,0-.29.01-.44,0-.15.01-.31.01-.48,0-.16,0-.33.01-.5,0-.17.01-.34.01-.52v-.53c0-.13,0-.22.02-.27v-1.41Zm3.97-4.68c0-.21,0-.47-.02-.77-.02-.31-.07-.6-.17-.87-.1-.27-.24-.51-.44-.71-.2-.2-.49-.3-.88-.3h-.87c-.18.02-.33.09-.46.22-.13.13-.19.28-.19.46v5.43c0,.18.06.33.19.46.13.13.28.19.46.19h.87c.38,0,.68-.1.88-.29.2-.19.35-.43.44-.71.1-.28.15-.57.17-.87.02-.3.02-.55.02-.76v-1.47Zm1.33.54v-.41c0-.1,0-.17-.02-.22v-.1s0-.05-.01-.06c0,0-.01-.03-.01-.06,0-.08-.02-.2-.05-.36-.02-.03-.02-.06-.02-.1s0-.06-.02-.1c0-.02,0-.03-.01-.04,0,0-.01-.02-.01-.04s0-.03-.01-.04c0,0-.01-.02-.01-.04-.02-.03-.02-.06-.02-.07s0-.04-.02-.07c-.02-.03-.02-.06-.02-.07s0-.04-.02-.07c-.02-.02-.02-.03-.02-.05s0-.03-.02-.05l-.05-.1s-.02-.03-.02-.04,0-.02-.02-.04c-.02-.02-.02-.03-.02-.05-.02-.02-.02-.03-.02-.05h-.02l.02.05v.05s.02.05.02.1c0,.02,0,.03.01.04,0,0,.01.03.01.06,0,.05,0,.09.02.12v.12s0,.06.01.07c0,.02.01.04.01.07,0,.15,0,.26.02.34v.39c.02.08.02.21.02.39v.92s-.02.07-.02.12v.56c-.02.06-.02.13-.02.18v.16s0,.06-.01.07c0,.02-.01.04-.01.07v.15s-.02.07-.02.11,0,.08-.02.11c0,.03,0,.06-.02.07v.05l-.02.05.05-.02v-.02l.02-.02s.02-.03.02-.04c0,0,0-.02.02-.04.02-.03.03-.07.05-.11.02-.04.03-.08.05-.11.02-.03.02-.05.02-.06,0,0,0-.03.02-.06.02-.03.02-.06.02-.08s0-.05.02-.08c.02-.03.02-.06.02-.07s0-.04.02-.07c0-.03,0-.06.01-.08,0-.02.01-.05.01-.08.02-.06.03-.13.04-.19,0-.06.02-.13.04-.19.02-.05.02-.12.02-.22,0-.03,0-.06.01-.1,0-.03.01-.06.01-.1v-.44Z"/><path class="cls-1" d="m104.22,47.45c0,.29.03.5.08.64.06.14.12.24.18.32.06.07.12.14.18.21.06.06.08.17.08.32h-6.57c-.1,0-.18-.04-.27-.12-.08-.08-.12-.17-.12-.27,0,.1-.04.19-.11.27-.07.08-.17.12-.28.12h-1.28c0-.15.03-.25.08-.32.06-.06.12-.13.18-.21.06-.07.12-.17.18-.3.06-.13.08-.33.08-.61v-5.91c-.05-.5-.27-.86-.68-1.09.18-.11.4-.17.68-.17v-6.93c0-.27-.03-.48-.08-.61-.06-.13-.12-.23-.18-.3-.06-.07-.13-.14-.18-.21-.06-.06-.08-.17-.08-.32h1.3c.1,0,.19.04.27.11.08.07.12.17.12.28,0-.26.13-.4.39-.4h6.54c0,.15-.03.25-.08.32-.06.07-.12.13-.18.21-.06.07-.13.18-.18.32-.06.14-.08.35-.08.65v3.24c-.57,0-1-.11-1.3-.33s-.52-.46-.67-.74c-.18-.31-.27-.67-.29-1.09v-.75c0-.18-.06-.33-.19-.46-.13-.13-.28-.2-.46-.22h-1.73c-.18.02-.33.09-.46.22-.13.13-.19.28-.19.46v5.44c0,.18.06.33.19.46.13.13.28.19.46.19h.17c.18,0,.32-.06.44-.19.12-.13.18-.28.18-.46v-.02c.02-.24.08-.45.19-.63.1-.16.24-.31.43-.44.19-.13.47-.19.84-.19v5.01c-.37,0-.65-.06-.84-.19-.19-.13-.34-.27-.43-.44-.11-.18-.18-.39-.19-.63,0-.18-.06-.33-.18-.46s-.27-.2-.44-.22h-.17c-.18.02-.33.09-.46.22-.13.13-.19.28-.19.46v5.44c0,.18.06.33.19.46.13.13.28.19.46.19h1.73c.18,0,.33-.06.46-.19.13-.13.19-.28.19-.46v-.78c.02-.4.11-.76.29-1.07.15-.27.37-.52.67-.75.3-.23.73-.34,1.3-.34v3.25Zm-6.23-7v-1.14c0-.08,0-.17-.01-.27,0-.1-.01-.19-.01-.29v-.53c-.02-.36-.02-.69-.02-1.02s0-.63-.02-.92c-.02-.13-.02-.26-.02-.39s0-.25-.02-.36c0-.13,0-.24-.01-.34,0-.1-.01-.19-.01-.27s0-.15-.01-.22c0-.06-.01-.12-.01-.17v-.12s-.02,0-.02.02v.1s0,.11-.01.17c0,.06-.01.14-.01.22s0,.17-.01.27c0,.1-.01.21-.01.34-.02.11-.02.23-.02.36s0,.26-.02.39c-.02.29-.02.6-.02.92s0,.66-.02,1.02v.53c0,.1,0,.19-.01.29,0,.1-.01.19-.01.27v2.25c0,.13,0,.23.02.29v.8c0,.18,0,.35.01.52,0,.17.01.34.01.5,0,.18,0,.34.01.48,0,.15.01.29.01.44.02.15.02.28.02.4s0,.25.02.38c0,.11,0,.22.01.31,0,.1.01.19.01.27s0,.16.01.23.01.13.01.16v.12s0,.02.02.02v-.15s0-.08.01-.16c0-.07.01-.15.01-.23s0-.17.01-.27c0-.1.01-.2.01-.31.02-.13.02-.25.02-.38s0-.25.02-.4c0-.15,0-.29.01-.44,0-.15.01-.31.01-.48,0-.16,0-.33.01-.5,0-.17.01-.34.01-.52v-.53c0-.13,0-.22.02-.27v-1.41Z"/><path class="cls-1" d="m113.93,49.94c.18.03.3.09.38.17.07.08.12.16.16.24.03.1.05.2.05.32-.52,0-1-.06-1.45-.19-.45-.13-.85-.34-1.19-.63-.34-.29-.61-.67-.81-1.14-.2-.47-.3-1.04-.3-1.72v-3.32c0-.21,0-.47-.02-.78-.02-.31-.07-.6-.17-.87-.1-.27-.24-.51-.44-.71-.2-.2-.49-.3-.88-.3h-.99c-.14.03-.27.11-.37.23-.1.12-.16.26-.16.42v5.79c0,.29.03.5.08.64.06.14.12.24.18.32.06.07.12.14.18.21.06.06.08.17.08.32h-1.28c-.1,0-.19-.04-.27-.12-.08-.08-.12-.17-.12-.27,0,.1-.04.19-.11.27-.07.08-.17.12-.28.12h-1.28c0-.15.03-.25.08-.32.06-.06.12-.13.18-.21.06-.07.12-.17.18-.3.06-.13.08-.33.08-.61v-5.91c-.05-.5-.27-.86-.68-1.09.18-.11.4-.17.68-.17v-6.93c0-.27-.03-.48-.08-.61-.06-.13-.12-.23-.18-.3-.06-.07-.13-.14-.18-.21-.06-.06-.08-.17-.08-.32h1.3c.1,0,.19.04.27.11.08.07.12.17.12.28,0-.26.13-.4.38-.4h2.26c.51,0,.99.1,1.44.29s.84.46,1.18.79c.34.33.6.72.79,1.17s.3.93.31,1.43v1.57c0,.68-.16,1.3-.48,1.87-.32.57-.75,1.02-1.29,1.36.54.32.97.77,1.29,1.34.32.57.48,1.2.48,1.88v3.22c0,.34,0,.68.01,1.03,0,.35.04.66.11.94.06.28.16.52.29.71.13.19.31.31.53.36Zm-7.15-9.5v-1.14c0-.08,0-.17-.01-.27,0-.1-.01-.19-.01-.29v-.53c-.02-.36-.02-.69-.02-1.02s0-.63-.02-.92c-.02-.13-.02-.26-.02-.39s0-.25-.02-.36c0-.13,0-.24-.01-.34,0-.1-.01-.19-.01-.27s0-.15-.01-.22c0-.06-.01-.12-.01-.17v-.12s-.02,0-.02.02v.1s0,.11-.01.17c0,.06-.01.14-.01.22s0,.17-.01.27c0,.1-.01.21-.01.34-.02.11-.02.23-.02.36s0,.26-.02.39c-.02.29-.02.6-.02.92s0,.66-.02,1.02v.53c0,.1,0,.19-.01.29,0,.1-.01.19-.01.27v2.25c0,.13,0,.23.02.29v.8c0,.18,0,.35.01.52,0,.17.01.34.01.5,0,.18,0,.34.01.48,0,.15.01.29.01.44.02.15.02.28.02.4s0,.25.02.38c0,.11,0,.22.01.31,0,.1.01.19.01.27s0,.16.01.23.01.13.01.16v.12s0,.02.02.02v-.15s0-.08.01-.16c0-.07.01-.15.01-.23s0-.17.01-.27c0-.1.01-.2.01-.31.02-.13.02-.25.02-.38s0-.25.02-.4c0-.15,0-.29.01-.44,0-.15.01-.31.01-.48,0-.16,0-.33.01-.5,0-.17.01-.34.01-.52v-.53c0-.13,0-.22.02-.27v-1.41Zm3.97-4.68c0-.21,0-.47-.02-.77-.02-.31-.07-.6-.17-.87-.1-.27-.24-.51-.44-.71-.2-.2-.49-.3-.88-.3h-.87c-.18.02-.33.09-.46.22-.13.13-.19.28-.19.46v5.43c0,.18.06.33.19.46.13.13.28.19.46.19h.87c.38,0,.68-.1.88-.29.2-.19.35-.43.44-.71.1-.28.15-.57.17-.87.02-.3.02-.55.02-.76v-1.47Zm1.62,13.28v-.02l-.02-.02-.02-.02s-.03-.06-.04-.1c0-.03-.03-.06-.06-.1-.02-.05-.03-.1-.05-.16s-.03-.12-.05-.21c-.03-.16-.05-.32-.05-.46-.02-.08-.02-.17-.02-.25v-1.93c0-.11,0-.23.02-.36v-.34c0-.11,0-.23-.02-.34v-.34c0-.16,0-.27-.02-.34,0-.11,0-.22-.01-.33,0-.11-.02-.21-.04-.3-.03-.23-.06-.42-.1-.58-.02-.08-.03-.16-.05-.23-.02-.07-.04-.15-.07-.23-.03-.08-.06-.15-.07-.19-.02-.05-.04-.1-.07-.15-.03-.05-.06-.09-.07-.12-.02-.03-.03-.06-.05-.1-.02,0-.03,0-.05-.02-.02,0-.02,0-.02-.02l.02.02s0,.03.02.05c0,.02,0,.03.01.04,0,0,.01.03.01.06.02.02.02.03.02.05s0,.04.02.07c.02.06.04.18.07.34.02.08.03.16.04.24,0,.08.02.16.04.24,0,.08,0,.17.01.25,0,.09.01.19.01.3v3c0,.06,0,.12.01.17s.01.11.01.17c0,.11,0,.22.01.33,0,.11.02.21.04.3.02.1.03.19.04.29,0,.1.02.19.04.27.03.1.06.18.07.25.02.07.04.15.07.23.03.08.06.15.07.19.02.05.04.1.07.15l.05.05s.02.03.02.04,0,.02.02.04l.02.02.05.05.02.02h.02v.02Zm-.63-12.64v.41s-.02.07-.02.12v.56c-.02.06-.02.13-.02.18v.16s0,.06-.01.07c0,.02-.01.04-.01.07v.15s-.02.07-.02.11,0,.08-.02.11c0,.03,0,.06-.02.07v.05l-.02.05.05-.02v-.02l.02-.02s.02-.03.02-.04c0,0,0-.02.02-.04.02-.03.03-.07.05-.11.02-.04.03-.08.05-.11.02-.03.02-.05.02-.06,0,0,0-.03.02-.06.02-.03.02-.06.02-.08s0-.05.02-.08c.02-.03.02-.06.02-.07s0-.04.02-.07c0-.03,0-.06.01-.08,0-.02.01-.05.01-.08.02-.06.03-.13.04-.19,0-.06.02-.13.04-.19.02-.05.02-.12.02-.22,0-.03,0-.06.01-.1,0-.03.01-.06.01-.1v-.85c0-.1,0-.17-.02-.22v-.1s0-.05-.01-.06c0,0-.01-.03-.01-.06,0-.08-.02-.2-.05-.36-.02-.03-.02-.06-.02-.1s0-.06-.02-.1c0-.02,0-.03-.01-.04,0,0-.01-.02-.01-.04s0-.03-.01-.04c0,0-.01-.02-.01-.04-.02-.03-.02-.06-.02-.07s0-.04-.02-.07c-.02-.03-.02-.06-.02-.07s0-.04-.02-.07c-.02-.02-.02-.03-.02-.05s0-.03-.02-.05l-.05-.1s-.02-.03-.02-.04,0-.02-.02-.04c-.02-.02-.02-.03-.02-.05-.02-.02-.02-.03-.02-.05h-.02l.02.05v.05s.02.05.02.1c0,.02,0,.03.01.04,0,0,.01.03.01.06,0,.05,0,.09.02.12v.12s0,.06.01.07c0,.02.01.04.01.07,0,.15,0,.26.02.34v.39c.02.08.02.21.02.39v.51Z"/><path class="cls-1" d="m115.94,47.45c0,.29.03.5.08.64.06.14.12.24.18.32.06.07.12.14.18.21.06.06.08.17.08.32h-1.28c-.1,0-.19-.04-.27-.12-.08-.08-.12-.17-.12-.27,0,.1-.04.19-.11.27-.07.08-.17.12-.28.12h-1.28c0-.15.03-.25.08-.32.06-.06.12-.13.18-.21.06-.07.12-.17.18-.3.06-.13.08-.33.08-.61v-5.91c-.05-.5-.27-.86-.68-1.09.18-.11.4-.17.68-.17v-6.93c0-.27-.03-.48-.08-.61-.06-.13-.12-.23-.18-.3-.06-.07-.13-.14-.18-.21-.06-.06-.08-.17-.08-.32h1.3c.1,0,.19.04.27.11.08.07.12.17.12.28,0-.26.13-.39.39-.39h1.26c0,.15-.03.25-.08.32-.06.06-.12.13-.18.21-.06.07-.12.18-.18.32-.06.14-.08.35-.08.64v6.88c.27,0,.5.06.68.17-.4.23-.63.59-.68,1.09v5.86Zm-.97-5.89c.02-.18.02-.36.02-.56v-1.13c0-.19,0-.38-.02-.57v-1.09c-.03-.74-.06-1.39-.07-1.94v-.39c0-.13,0-.25-.02-.36,0-.13,0-.24-.01-.34,0-.1-.01-.19-.01-.27-.02-.08-.02-.15-.02-.22v-.17s-.02-.06-.02-.1v-.02.12s0,.11-.01.17c0,.06-.01.14-.01.22-.02.08-.02.17-.02.27s0,.21-.02.34v.36c0,.13,0,.26-.02.39-.02.29-.03.6-.04.92,0,.32-.01.66-.01,1.02v.27c0,.1,0,.19-.02.27v3.37c.02.08.02.17.02.27v.79c0,.17,0,.34.02.5,0,.18,0,.34.01.48,0,.15.01.29.01.44s0,.28.01.4c0,.12.01.25.01.38.02.11.02.22.02.31s0,.19.02.27c0,.08,0,.16.01.23s.01.13.01.16v.15-.02s0-.09.02-.12v-.16c0-.07,0-.15.02-.23,0-.08,0-.17.01-.27,0-.1.01-.2.01-.31.02-.13.02-.25.02-.38s0-.25.02-.4v-.44c0-.15,0-.31.02-.48v-.5c0-.17,0-.34.02-.52v-1.09Z"/><path class="cls-1" d="m124.85,47.45c0,.29.03.5.08.64.06.14.12.24.18.32.06.07.12.14.18.21.06.06.08.17.08.32h-6.57c-.1,0-.18-.04-.27-.12-.08-.08-.12-.17-.12-.27,0,.1-.04.19-.11.27-.07.08-.17.12-.28.12h-1.28c0-.15.03-.25.08-.32.06-.06.12-.13.18-.21.06-.07.12-.17.18-.3.06-.13.08-.33.08-.61v-5.91c-.05-.5-.27-.86-.68-1.09.18-.11.4-.17.68-.17v-6.93c0-.27-.03-.48-.08-.61-.06-.13-.12-.23-.18-.3-.06-.07-.13-.14-.18-.21-.06-.06-.08-.17-.08-.32h1.3c.1,0,.19.04.27.11.08.07.12.17.12.28,0-.26.13-.4.39-.4h6.54c0,.15-.03.25-.08.32-.06.07-.12.13-.18.21-.06.07-.13.18-.18.32-.06.14-.08.35-.08.65v3.24c-.57,0-1-.11-1.3-.33s-.52-.46-.67-.74c-.18-.31-.27-.67-.29-1.09v-.75c0-.18-.06-.33-.19-.46-.13-.13-.28-.2-.46-.22h-1.73c-.18.02-.33.09-.46.22-.13.13-.19.28-.19.46v5.44c0,.18.06.33.19.46.13.13.28.19.46.19h.17c.18,0,.32-.06.44-.19.12-.13.18-.28.18-.46v-.02c.02-.24.08-.45.19-.63.1-.16.24-.31.43-.44.19-.13.47-.19.84-.19v5.01c-.37,0-.65-.06-.84-.19-.19-.13-.34-.27-.43-.44-.11-.18-.18-.39-.19-.63,0-.18-.06-.33-.18-.46s-.27-.2-.44-.22h-.17c-.18.02-.33.09-.46.22-.13.13-.19.28-.19.46v5.44c0,.18.06.33.19.46.13.13.28.19.46.19h1.73c.18,0,.33-.06.46-.19.13-.13.19-.28.19-.46v-.78c.02-.4.11-.76.29-1.07.15-.27.37-.52.67-.75.3-.23.73-.34,1.3-.34v3.25Zm-6.23-7v-1.14c0-.08,0-.17-.01-.27,0-.1-.01-.19-.01-.29v-.53c-.02-.36-.02-.69-.02-1.02s0-.63-.02-.92c-.02-.13-.02-.26-.02-.39s0-.25-.02-.36c0-.13,0-.24-.01-.34,0-.1-.01-.19-.01-.27s0-.15-.01-.22c0-.06-.01-.12-.01-.17v-.12s-.02,0-.02.02v.1s0,.11-.01.17c0,.06-.01.14-.01.22s0,.17-.01.27c0,.1-.01.21-.01.34-.02.11-.02.23-.02.36s0,.26-.02.39c-.02.29-.02.6-.02.92s0,.66-.02,1.02v.53c0,.1,0,.19-.01.29,0,.1-.01.19-.01.27v2.25c0,.13,0,.23.02.29v.8c0,.18,0,.35.01.52,0,.17.01.34.01.5,0,.18,0,.34.01.48,0,.15.01.29.01.44.02.15.02.28.02.4s0,.25.02.38c0,.11,0,.22.01.31,0,.1.01.19.01.27s0,.16.01.23.01.13.01.16v.12s0,.02.02.02v-.15s0-.08.01-.16c0-.07.01-.15.01-.23s0-.17.01-.27c0-.1.01-.2.01-.31.02-.13.02-.25.02-.38s0-.25.02-.4c0-.15,0-.29.01-.44,0-.15.01-.31.01-.48,0-.16,0-.33.01-.5,0-.17.01-.34.01-.52v-.53c0-.13,0-.22.02-.27v-1.41Z"/><path class="cls-1" d="m133.62,47.45c0,.29.03.5.09.64.06.14.12.24.19.32.07.07.13.14.19.21.06.06.09.17.09.32h-1.28c-.12,0-.21-.04-.28-.12-.07-.08-.11-.17-.11-.27,0,.1-.04.19-.12.27-.08.08-.17.12-.26.12h-1.28v-.02l-2.5-13.61v5.04c.27,0,.49.06.66.17-.39.23-.62.59-.66,1.09v5.86c0,.29.03.5.08.64.06.14.12.24.18.32.06.07.12.14.18.21.06.06.08.17.08.32h-1.28c-.1,0-.19-.04-.27-.12-.08-.08-.12-.17-.12-.27,0,.1-.04.19-.11.27-.07.08-.17.12-.28.12h-1.28c0-.15.03-.25.08-.32.06-.06.12-.13.18-.21.06-.07.12-.17.18-.3.06-.13.08-.33.08-.61v-5.91c-.05-.5-.27-.86-.68-1.09.18-.11.4-.17.68-.17v-6.93c0-.27-.03-.48-.08-.61-.06-.13-.12-.23-.18-.3-.06-.07-.13-.14-.18-.21-.06-.06-.08-.17-.08-.32h1.3c.1,0,.19.04.27.11.08.07.12.17.12.28,0-.26.13-.39.39-.39h1.25l2.5,13.56v-3.95c-.03-.48-.25-.85-.66-1.09.17-.11.4-.17.66-.17v-6.93c0-.27-.03-.48-.08-.61-.06-.13-.12-.23-.18-.3-.06-.07-.13-.14-.18-.21-.06-.06-.08-.17-.08-.32h1.28c.26,0,.39.13.39.39,0-.26.13-.39.39-.39h1.28c0,.15-.03.25-.09.32-.06.06-.12.13-.19.21-.07.07-.13.18-.19.32-.06.14-.09.35-.09.64v6.88c.27,0,.5.06.68.17-.18.11-.33.27-.45.46-.12.19-.2.4-.23.63v5.86Zm-6.23-7v-1.14c0-.08,0-.17-.01-.27,0-.1-.01-.19-.01-.29v-.53c-.02-.36-.02-.69-.02-1.02s0-.63-.02-.92c-.02-.13-.02-.26-.02-.39s0-.25-.02-.36c0-.13,0-.24-.01-.34,0-.1-.01-.19-.01-.27s0-.15-.01-.22c0-.06-.01-.12-.01-.17v-.12s-.02,0-.02.02v.1s0,.11-.01.17c0,.06-.01.14-.01.22s0,.17-.01.27c0,.1-.01.21-.01.34-.02.11-.02.23-.02.36s0,.26-.02.39c-.02.29-.02.6-.02.92s0,.66-.02,1.02v.53c0,.1,0,.19-.01.29,0,.1-.01.19-.01.27v2.25c0,.13,0,.23.02.29v.8c0,.18,0,.35.01.52,0,.17.01.34.01.5,0,.18,0,.34.01.48,0,.15.01.29.01.44.02.15.02.28.02.4s0,.25.02.38c0,.11,0,.22.01.31,0,.1.01.19.01.27s0,.16.01.23.01.13.01.16v.12s0,.02.02.02v-.15s0-.08.01-.16c0-.07.01-.15.01-.23s0-.17.01-.27c0-.1.01-.2.01-.31.02-.13.02-.25.02-.38s0-.25.02-.4c0-.15,0-.29.01-.44,0-.15.01-.31.01-.48,0-.16,0-.33.01-.5,0-.17.01-.34.01-.52v-.53c0-.13,0-.22.02-.27v-1.41Zm5.28,0v-1.4c0-.1,0-.19-.02-.29v-.53c0-.36,0-.69-.01-1.02,0-.32-.02-.63-.04-.92-.02-.13-.02-.26-.02-.39s0-.25-.02-.36c0-.13,0-.24-.01-.34,0-.1-.01-.19-.01-.27s0-.15-.01-.22c0-.06-.01-.12-.01-.17v-.12s-.02,0-.02.02v.27c0,.06,0,.14-.02.22,0,.08,0,.17-.01.27,0,.1-.01.21-.01.34-.02.11-.02.23-.02.36s0,.26-.02.39c-.02.29-.02.6-.02.92s0,.66-.02,1.02v1.09c-.02.19-.02.38-.02.57v1.13c0,.19,0,.38.02.56v1.09c0,.18,0,.35.01.52s.01.34.01.5c.02.18.02.34.02.48v.44c.02.15.02.28.02.4s0,.25.02.38c0,.11,0,.22.01.31,0,.1.01.19.01.27.02.08.02.16.02.23v.28s0,.02.02.02v-.15s0-.08.01-.16c0-.07.01-.15.01-.23s0-.17.01-.27c0-.1.01-.2.01-.31.02-.13.02-.25.02-.38s0-.25.02-.4c0-.15,0-.29.01-.44,0-.15.01-.31.01-.48,0-.16,0-.33.01-.5s.01-.34.01-.52v-.53c.02-.06.02-.15.02-.27v-1.41Z"/><path class="cls-1" d="m143.14,43.69c0,.15-.03.25-.08.31-.06.06-.12.13-.18.21-.06.07-.13.18-.18.32-.06.14-.08.34-.08.62,0,.52-.1,1-.3,1.47s-.47.86-.81,1.2-.74.61-1.2.81c-.46.2-.95.3-1.47.3s-1-.1-1.45-.29-.85-.46-1.19-.79c-.34-.33-.61-.72-.81-1.16-.2-.44-.31-.92-.33-1.44v-3.66c-.05-.5-.27-.86-.68-1.09.18-.11.4-.17.68-.17v-4.67c.02-.5.12-.98.33-1.43.2-.45.47-.84.81-1.17.34-.33.73-.59,1.19-.79s.94-.29,1.45-.29,1.01.1,1.47.3c.46.2.86.47,1.2.81s.61.74.81,1.2.3.95.3,1.47c0,.27.03.48.08.62.06.14.12.24.18.31.06.07.12.14.18.21.06.06.08.17.08.31h-1.26c-.26,0-.39-.13-.39-.39,0,.11-.04.21-.12.28-.08.07-.17.11-.27.11h-1.28c0-.14.03-.25.08-.31.06-.06.12-.13.18-.2.06-.07.12-.18.18-.31.06-.14.08-.35.08-.64,0-.21,0-.46-.02-.76-.02-.3-.07-.59-.17-.87-.1-.28-.25-.52-.46-.71s-.5-.29-.87-.29-.68.1-.88.3c-.2.2-.35.44-.45.71-.1.27-.15.56-.17.87-.02.31-.02.56-.02.77v4.57c.27,0,.5.06.68.17-.4.23-.63.59-.68,1.09v3.55c0,.21,0,.46.02.76.02.3.07.59.17.87.1.28.25.52.45.71.2.19.5.29.88.29s.66-.1.87-.29c.21-.19.36-.43.46-.7.1-.27.15-.56.17-.86.02-.3.02-.55.02-.76v-.02c0-.27-.03-.48-.08-.62-.06-.14-.12-.24-.18-.32-.06-.07-.13-.14-.18-.21-.06-.06-.08-.17-.08-.31h1.28c.1,0,.19.04.27.11.08.07.12.17.12.28,0-.26.13-.39.39-.39h1.26Zm-6.78-3.27v-.97c0-.08,0-.16-.01-.23,0-.07-.01-.15-.01-.23v-.46c-.02-.31-.02-.6-.02-.87s0-.53-.02-.77c-.02-.11-.02-.23-.02-.34s0-.22-.02-.32c0-.1,0-.19-.01-.27,0-.08-.01-.15-.01-.22,0-.08,0-.15-.01-.21,0-.06-.01-.1-.01-.13v-.12s-.02,0-.02.02v.1s0,.08-.01.13c0,.06-.01.13-.01.21,0,.06,0,.14-.01.22,0,.08-.01.17-.01.27-.02.1-.02.2-.02.32s0,.23-.02.34c-.02.24-.02.5-.02.77s0,.57-.02.87v.46c0,.08,0,.16-.01.23,0,.07-.01.15-.01.23v1.91c0,.11,0,.19.02.24v.7c0,.15,0,.29.01.44,0,.15.01.28.01.41,0,.15,0,.28.01.4,0,.12.01.25.01.38.02.13.02.25.02.35s0,.21.02.3c0,.1,0,.19.01.27,0,.08.01.16.01.24s0,.15.01.21.01.1.01.13v.07s0,.02.02.02v-.1s0-.08.01-.13.01-.12.01-.21,0-.16.01-.24c0-.08.01-.17.01-.27.02-.1.02-.2.02-.3s0-.22.02-.35c0-.13,0-.25.01-.38,0-.12.01-.25.01-.4,0-.13,0-.27.01-.41,0-.15.01-.29.01-.44v-.7s.02-.13.02-.24v-.94Z"/><path class="cls-1" d="m151.38,48.24c0,.29.03.51.08.65.06.14.12.24.18.32.06.07.12.14.18.21.06.06.08.17.08.32h-6.54c-.26,0-.39-.13-.39-.39,0,.11-.04.21-.12.28-.08.07-.17.11-.27.11h-1.3c0-.15.03-.25.08-.32.06-.06.12-.13.18-.21.06-.07.12-.17.18-.3.06-.13.08-.33.08-.61v-6.73c-.05-.5-.27-.86-.68-1.09.23-.11.45-.17.68-.17v-7.99c0-.27-.03-.48-.08-.61s-.12-.23-.18-.3c-.06-.07-.13-.14-.18-.21-.06-.06-.08-.17-.08-.32h1.3c.1,0,.19.04.27.12.08.08.12.18.12.29,0-.11.04-.21.11-.29.07-.08.16-.12.28-.12h6.54c0,.15-.03.25-.08.32-.06.06-.12.14-.18.22-.06.08-.13.19-.18.31-.06.13-.08.34-.08.63v3.25c-.57,0-1-.11-1.3-.33-.3-.22-.52-.46-.67-.74-.18-.31-.27-.67-.29-1.09v-.78c0-.18-.06-.33-.19-.46-.13-.13-.28-.19-.46-.19h-1.73c-.18,0-.33.06-.46.19-.13.13-.19.28-.19.46v6.52c0,.18.06.33.19.46.13.13.28.2.46.22h.17c.18-.02.32-.09.44-.22.12-.13.18-.28.18-.46v-.02c.02-.24.08-.45.19-.63.1-.16.24-.31.43-.44.19-.13.47-.19.84-.19v5.01c-.37,0-.65-.06-.84-.18-.19-.12-.34-.26-.43-.42-.11-.18-.18-.39-.19-.63v-.02c0-.18-.06-.33-.18-.46-.12-.13-.27-.2-.44-.22h-.17c-.18.02-.33.09-.46.22-.13.13-.19.28-.19.46v6.27c0,.18.06.33.19.46.13.13.28.19.46.19h1.73c.18,0,.33-.06.46-.19.13-.13.19-.28.19-.46v-.76c.02-.41.11-.76.29-1.07.15-.28.37-.53.67-.76.3-.23.73-.34,1.3-.34v3.24Zm-6.23-7.95v-1.31c0-.11,0-.22-.01-.32,0-.1-.01-.2-.01-.32v-.63c-.02-.4-.02-.8-.02-1.17s0-.73-.02-1.05c-.02-.16-.02-.32-.02-.47s0-.29-.02-.42c0-.13,0-.25-.01-.36,0-.11-.01-.22-.01-.32s0-.18-.01-.25c0-.07-.01-.13-.01-.18v-.17s-.02.03-.02.05v.12s0,.11-.01.18c0,.07-.01.16-.01.25s0,.2-.01.32c0,.11-.01.23-.01.36-.02.13-.02.27-.02.42s0,.31-.02.47c-.02.32-.02.67-.02,1.05s0,.77-.02,1.17v.94c0,.1,0,.2-.02.32v2.62s0,.1.01.16c0,.06.01.11.01.16v.94c0,.21,0,.41.01.61,0,.19.01.38.01.56,0,.19,0,.38.01.55,0,.17.01.34.01.52.02.08.02.16.02.23v.23c0,.08,0,.15.01.22,0,.06.01.14.01.22,0,.13,0,.25.01.36,0,.11.01.22.01.32s0,.18.01.25.01.13.01.18v.12s0,.03.02.05v-.17s0-.11.01-.18c0-.07.01-.16.01-.25s0-.2.01-.32c0-.11.01-.23.01-.36.02-.08.02-.15.02-.22v-.22c0-.08,0-.16.01-.23,0-.07.01-.15.01-.23,0-.18,0-.35.01-.52,0-.17.01-.35.01-.55,0-.18,0-.36.01-.56,0-.19.01-.4.01-.61v-.79c0-.06,0-.11.02-.16v-1.62Z"/></g></g><g><path class="cls-4" d="m42.81,62.97v-.62h2.57v.62l-.8.14v2.46h3.47v-2.46l-.8-.14v-.62h2.57v.62l-.8.14v5.61l.8.14v.62h-2.57v-.62l.8-.14v-2.39h-3.47v2.39l.8.14v.62h-2.57v-.62l.8-.14v-5.61l-.8-.14Z"/><path class="cls-4" d="m54.09,69.48c-.03-.14-.05-.27-.07-.39-.02-.11-.03-.23-.03-.34-.19.24-.42.44-.7.6-.28.16-.58.24-.89.24-.55,0-.97-.13-1.26-.4-.29-.27-.43-.65-.43-1.14s.2-.89.61-1.16c.41-.27.97-.41,1.68-.41h1v-.62c0-.31-.1-.55-.29-.73-.2-.18-.47-.27-.82-.27-.24,0-.46.03-.64.09-.18.06-.33.15-.45.25l-.1.56h-.75v-1.03c.24-.19.54-.35.88-.46.34-.12.72-.18,1.12-.18.6,0,1.09.15,1.46.46.37.31.56.74.56,1.32v2.75c0,.07,0,.13.01.2l.39.05v.62h-1.27Zm-1.56-.7c.32,0,.61-.08.88-.23.27-.15.45-.34.57-.55v-.87h-1.03c-.4,0-.71.09-.94.27-.23.18-.34.4-.34.67,0,.23.07.41.22.53.14.12.36.18.65.18Z"/><path class="cls-4" d="m56.16,68.86l.8-.14v-3.78l-.8-.14v-.62h1.77v4.54l.8.14v.62h-2.57v-.62Zm1.77-6.03h-.97v-.98h.97v.98Z"/><path class="cls-4" d="m59.47,64.8v-.62h1.66l.09.77c.15-.27.34-.48.55-.64.22-.15.48-.23.76-.23.08,0,.15,0,.23.02.08.01.14.02.19.03l-.13.9-.55-.03c-.26,0-.47.06-.64.18-.17.12-.31.28-.4.5v3.04l.8.14v.62h-2.57v-.62l.8-.14v-3.78l-.8-.14Z"/><path class="cls-4" d="m65.92,68.83c.32,0,.6-.1.84-.29.25-.2.37-.44.37-.73h.87v.03c.03.46-.18.86-.6,1.22-.42.35-.91.53-1.48.53-.77,0-1.36-.25-1.77-.75-.41-.5-.61-1.13-.61-1.89v-.21c0-.75.2-1.38.61-1.88.41-.51,1-.76,1.77-.76.43,0,.81.07,1.14.21.34.14.62.33.84.58l.04,1.17h-.77l-.21-.83c-.11-.11-.26-.2-.44-.27s-.38-.1-.61-.1c-.51,0-.87.18-1.09.55-.22.36-.32.81-.32,1.34v.21c0,.54.11.99.32,1.35.22.36.58.54,1.09.54Z"/><path class="cls-4" d="m72.76,68.69c-.17.28-.38.5-.65.66-.26.15-.56.23-.91.23-.58,0-1.03-.18-1.35-.55-.32-.37-.49-.94-.49-1.72v-2.36l-.61-.14v-.62h1.58v3.13c0,.56.08.95.25,1.16.17.21.43.32.78.32s.63-.07.85-.21c.23-.14.4-.34.51-.59v-3.06l-.71-.14v-.62h1.68v4.54l.61.14v.62h-1.48l-.06-.78Z"/><path class="cls-4" d="m76.75,62.91v1.28h1.01v.71h-1.01v3.21c0,.25.05.42.15.52.11.1.24.15.41.15.09,0,.18,0,.28-.02.11-.02.2-.03.27-.05l.13.66c-.09.06-.23.11-.4.14-.18.04-.35.06-.53.06-.39,0-.71-.12-.94-.35-.23-.24-.35-.61-.35-1.12v-3.21h-.84v-.71h.84v-1.28h.97Z"/><path class="cls-4" d="m82.81,65.85h-.73l-.16-.64c-.12-.11-.27-.2-.45-.26-.18-.07-.38-.1-.6-.1-.34,0-.6.08-.77.23-.17.15-.25.33-.25.54s.07.37.22.49c.15.12.45.23.9.32.67.14,1.17.34,1.5.59.33.24.49.57.49.99,0,.47-.19.85-.57,1.14-.38.29-.88.44-1.49.44-.4,0-.76-.05-1.09-.14-.32-.09-.61-.23-.86-.41v-1.21s.72,0,.72,0l.18.71c.11.1.26.17.45.22.19.05.39.07.59.07.34,0,.61-.07.81-.21.2-.14.29-.32.29-.55,0-.21-.08-.39-.25-.52-.16-.14-.47-.26-.92-.36-.64-.14-1.13-.33-1.46-.57-.33-.24-.49-.57-.49-.98s.18-.8.55-1.1c.37-.3.85-.45,1.44-.45.4,0,.76.05,1.08.16.32.1.59.25.8.44l.05,1.17Z"/><path class="cls-4" d="m86.3,67.56c0-.4.12-.75.34-1.04.23-.3.58-.6,1.04-.9-.26-.32-.45-.61-.57-.86-.12-.25-.19-.52-.19-.78,0-.55.16-.98.48-1.27.32-.3.76-.45,1.32-.45.52,0,.94.15,1.26.45.32.3.49.65.49,1.07,0,.32-.09.6-.26.83-.17.23-.42.47-.76.71l-.54.39,1.67,2c.13-.21.24-.45.31-.7.08-.26.11-.53.11-.82h.86c0,.43-.06.82-.19,1.19-.13.37-.31.69-.55.98l.91,1.1v.02h-1.13l-.42-.5c-.26.2-.55.35-.87.45-.32.1-.65.15-.99.15-.71,0-1.28-.19-1.7-.56-.42-.38-.63-.86-.63-1.46Zm2.33,1.27c.24,0,.47-.04.7-.12.23-.08.45-.2.65-.35l-1.77-2.13-.2.14c-.3.22-.5.43-.59.64-.1.2-.14.38-.14.55,0,.37.12.67.35.91.23.24.57.36,1.01.36Zm-.74-4.86c0,.17.04.35.13.54.09.19.22.39.4.61l.68-.47c.19-.12.31-.26.38-.4.07-.15.1-.31.1-.48,0-.2-.08-.38-.24-.53-.16-.15-.36-.23-.62-.23s-.47.09-.61.28c-.14.18-.22.41-.22.67Z"/><path class="cls-4" d="m100.3,64.46h-.73l-.18-1.02c-.15-.12-.34-.23-.59-.31-.25-.08-.53-.12-.85-.12-.51,0-.91.11-1.18.33-.28.22-.41.5-.41.85,0,.31.14.57.42.78.28.21.73.39,1.36.54.75.19,1.32.46,1.71.82.39.36.59.81.59,1.35,0,.57-.24,1.04-.71,1.38-.47.35-1.08.52-1.84.52-.55,0-1.04-.09-1.47-.27-.43-.18-.77-.41-1.04-.7v-1.33h.73l.19,1.02c.19.15.41.28.67.38.26.1.57.15.93.15.49,0,.87-.1,1.15-.31.28-.21.43-.48.43-.84,0-.33-.12-.6-.37-.82-.25-.22-.68-.41-1.3-.56-.76-.18-1.35-.44-1.77-.79-.43-.35-.64-.79-.64-1.32,0-.56.24-1.02.71-1.39.47-.37,1.09-.56,1.85-.56.5,0,.96.09,1.36.26.41.17.74.38.99.62v1.33Z"/><path class="cls-4" d="m101.21,68.86l.8-.14v-6.12l-.8-.14v-.62h1.77v3.04c.18-.25.41-.45.67-.59.26-.14.56-.21.88-.21.57,0,1.01.17,1.33.51.31.34.47.86.47,1.57v2.56l.8.14v.62h-2.57v-.62l.8-.14v-2.57c0-.44-.1-.76-.28-.97-.19-.21-.47-.31-.84-.31-.27,0-.51.06-.73.19-.22.12-.39.29-.53.51v3.16l.8.14v.62h-2.57v-.62Z"/><path class="cls-4" d="m111.29,69.48c-.03-.14-.05-.27-.07-.39-.02-.11-.03-.23-.03-.34-.19.24-.42.44-.7.6-.28.16-.58.24-.89.24-.55,0-.97-.13-1.26-.4-.29-.27-.43-.65-.43-1.14s.2-.89.61-1.16c.41-.27.97-.41,1.68-.41h1v-.62c0-.31-.1-.55-.29-.73-.2-.18-.47-.27-.82-.27-.24,0-.46.03-.64.09-.18.06-.33.15-.45.25l-.1.56h-.75v-1.03c.24-.19.53-.35.88-.46.34-.12.72-.18,1.12-.18.6,0,1.09.15,1.46.46s.56.74.56,1.32v2.75c0,.07,0,.13.01.2l.39.05v.62h-1.27Zm-1.56-.7c.32,0,.61-.08.88-.23.27-.15.46-.34.57-.55v-.87h-1.03c-.4,0-.71.09-.94.27-.23.18-.34.4-.34.67,0,.23.07.41.22.53.14.12.36.18.65.18Z"/><path class="cls-4" d="m115.11,64.8l-.64.1,1.09,3.01.09.38h.03l.09-.38,1.06-3.01-.64-.1v-.62h2.05v.62l-.44.07-1.78,4.6h-.73l-1.8-4.6-.44-.07v-.62h2.05v.62Z"/><path class="cls-4" d="m121.26,69.58c-.74,0-1.33-.24-1.77-.73-.44-.49-.65-1.13-.65-1.91v-.22c0-.75.22-1.38.67-1.88.45-.5.99-.75,1.6-.75.71,0,1.25.22,1.62.65.37.43.55,1,.55,1.72v.6h-3.45v.02c0,.51.12.93.37,1.26.25.33.6.49,1.05.49.33,0,.61-.05.86-.14.25-.09.46-.22.64-.39l.38.63c-.19.18-.44.34-.76.46-.31.12-.69.19-1.12.19Zm-.15-4.74c-.32,0-.6.14-.83.41-.23.27-.37.61-.42,1.02v.02h2.46v-.13c0-.38-.1-.69-.3-.95-.2-.25-.5-.38-.9-.38Z"/><path class="cls-4" d="m128.31,65.85h-.73l-.16-.64c-.12-.11-.27-.2-.45-.26-.18-.07-.38-.1-.6-.1-.34,0-.6.08-.77.23-.17.15-.25.33-.25.54s.07.37.22.49c.15.12.45.23.9.32.67.14,1.17.34,1.5.59.33.24.49.57.49.99,0,.47-.19.85-.57,1.14-.38.29-.88.44-1.49.44-.4,0-.76-.05-1.08-.14-.32-.09-.61-.23-.86-.41v-1.21s.72,0,.72,0l.18.71c.11.1.26.17.45.22.19.05.39.07.59.07.34,0,.61-.07.81-.21.2-.14.29-.32.29-.55,0-.21-.08-.39-.25-.52-.16-.14-.47-.26-.92-.36-.64-.14-1.13-.33-1.46-.57-.33-.24-.49-.57-.49-.98s.18-.8.55-1.1c.37-.3.85-.45,1.44-.45.4,0,.76.05,1.08.16.32.1.59.25.8.44l.05,1.17Z"/></g></g></svg>